<svg width="153" height="133" viewBox="0 0 153 133" fill="none" xmlns="http://www.w3.org/2000/svg">
<path fill-rule="evenodd" clip-rule="evenodd" d="M79.3846 126.805H143.154L111.277 71.4924L79.3846 126.805ZM46.1721 68.9314H106.684L76.4211 121.418L46.1721 68.9314ZM41.5981 71.5244L73.4567 126.805H9.72432L41.5981 71.5244ZM38.5643 66.2602L0.623657 132.062H152.252L114.312 66.2288L152.252 0.426651L0.623657 0.426636L38.5643 66.2602ZM106.704 63.5576L46.1917 63.5576L76.4551 11.0705L106.704 63.5576ZM111.278 60.9646L143.152 5.68439L79.4194 5.68439L111.278 60.9646ZM73.4915 5.68439L41.5992 60.9966L9.72215 5.68438L73.4915 5.68439Z" fill="#89DEAB"/>
</svg>
